<svg width="22" height="23" viewBox="0 0 22 23" fill="none" xmlns="http://www.w3.org/2000/svg">
<g clip-path="url(#clip0_306_1276)">
<path d="M11.0998 22.236C17.0956 22.236 21.9561 17.3755 21.9561 11.3798C21.9561 5.38399 17.0956 0.523468 11.0998 0.523468C5.10406 0.523468 0.24353 5.38399 0.24353 11.3798C0.24353 17.3755 5.10406 22.236 11.0998 22.236Z" fill="#F0F0F0"/>
<path d="M2.72504 4.47071H19.4746C18.856 3.72158 18.1384 3.05727 17.3425 2.49686H4.85715C4.06121 3.05719 3.34372 3.72154 2.72504 4.47071Z" fill="#F0F0F0"/>
<path d="M0.24353 11.3802C0.24353 11.713 0.259348 12.042 0.288652 12.3672H21.911C21.9403 12.042 21.9561 11.713 21.9561 11.3802C21.9561 11.0475 21.9403 10.7185 21.911 10.3933H0.288652C0.259348 10.7185 0.24353 11.0475 0.24353 11.3802Z" fill="#F0F0F0"/>
<path d="M1.42766 16.3145H20.7726C21.0922 15.6892 21.3529 15.0288 21.5476 14.3407H0.652618C0.847226 15.0288 1.10803 15.6892 1.42766 16.3145Z" fill="#F0F0F0"/>
<path d="M4.85715 20.2621H17.3424C18.1384 19.7017 18.8559 19.0374 19.4746 18.2882H2.72504C3.34372 19.0373 4.06121 19.7017 4.85715 20.2621Z" fill="#F0F0F0"/>
<path d="M0.652527 8.41947H21.5476C21.3529 7.73128 21.0922 7.07091 20.7725 6.44562H1.42761C1.10798 7.07091 0.847177 7.73128 0.652527 8.41947Z" fill="#F0F0F0"/>
<path d="M5.43509 2.49738H17.3419C15.5761 1.25408 13.423 0.523529 11.0992 0.523529C9.68321 0.523529 7.20093 1.25408 5.43509 2.49738Z" fill="#D80027"/>
<path d="M10.6278 6.44492H20.7722C20.4112 5.73871 19.9752 5.0772 19.4745 4.47107H10.6278V6.44492Z" fill="#D80027"/>
<path d="M10.6278 10.3923H21.9109C21.8499 9.71452 21.7271 9.05449 21.5473 8.41843H10.6278V10.3923Z" fill="#D80027"/>
<path d="M0.651955 14.3414H21.5469C21.7268 13.7054 21.8495 13.0453 21.9106 12.3676H0.288269C0.349336 13.0453 0.472063 13.7053 0.651955 14.3414Z" fill="#D80027"/>
<path d="M2.72476 18.2888H19.4743C19.9749 17.6825 20.411 17.0211 20.772 16.3149H1.42709C1.78811 17.0211 2.22414 17.6826 2.72476 18.2888Z" fill="#D80027"/>
<path d="M11.0991 22.2365C13.4229 22.2365 15.576 21.5059 17.3418 20.2626H4.85648C6.62232 21.5059 8.77534 22.2365 11.0991 22.2365Z" fill="#D80027"/>
<path d="M0.652339 8.41856C0.472447 9.05467 0.349763 9.71466 0.288696 10.3924H11.0999V0.523071C6.13057 0.523071 1.94118 3.86189 0.652339 8.41856Z" fill="#0052B4"/>
<path d="M6.70632 3.35562L7.40922 5.51904H9.68421L7.84381 6.85623L8.54667 9.01977L6.70632 7.68266L4.86588 9.01977L5.56891 6.85623L3.72852 5.51904H6.00337L6.70632 3.35562Z" fill="#F0F0F0"/>
</g>
<defs>
<clipPath id="clip0_306_1276">
<rect width="21.7126" height="21.7126" fill="white" transform="translate(0.24353 0.523468)"/>
</clipPath>
</defs>
</svg>
