<svg width="23" height="23" viewBox="0 0 23 23" fill="none" xmlns="http://www.w3.org/2000/svg">
<g clip-path="url(#clip0_306_1278)">
<path d="M11.6202 22.236C17.616 22.236 22.4765 17.3755 22.4765 11.3798C22.4765 5.38399 17.616 0.523468 11.6202 0.523468C5.62447 0.523468 0.763947 5.38399 0.763947 11.3798C0.763947 17.3755 5.62447 22.236 11.6202 22.236Z" fill="#F0F0F0"/>
<path d="M11.6204 0.523193C6.95258 0.523193 2.97328 3.46932 1.43936 7.6034H21.8015C20.2675 3.46932 16.2882 0.523193 11.6204 0.523193Z" fill="#D80027"/>
<path d="M11.6204 22.2363C16.2882 22.2363 20.2675 19.2902 21.8014 15.1561H1.43936C2.97328 19.2902 6.95258 22.2363 11.6204 22.2363Z" fill="black"/>
<path d="M15.3963 10.1997H12.5642C12.5642 9.67832 12.1415 9.25565 11.6202 9.25565C11.0988 9.25565 10.6761 9.67832 10.6761 10.1997H7.84406C7.84406 10.7211 8.2982 11.1437 8.81955 11.1437H8.78809C8.78809 11.6651 9.21072 12.0877 9.73212 12.0877C9.73212 12.6091 10.1547 13.0318 10.6761 13.0318H12.5642C13.0856 13.0318 13.5082 12.6091 13.5082 12.0877C14.0296 12.0877 14.4523 11.6651 14.4523 11.1437H14.4208C14.9422 11.1437 15.3963 10.7211 15.3963 10.1997Z" fill="#FF9811"/>
</g>
<defs>
<clipPath id="clip0_306_1278">
<rect width="21.7126" height="21.7126" fill="white" transform="translate(0.763947 0.523468)"/>
</clipPath>
</defs>
</svg>
